<svg width="16" height="11" viewBox="0 0 16 11" fill="none" xmlns="http://www.w3.org/2000/svg">
<path d="M14.9989 0C14.7337 0 14.4793 0.105357 14.2918 0.292893C14.1043 0.48043 13.9989 0.734784 13.9989 1V5C13.9989 5.26522 13.8936 5.51957 13.706 5.70711C13.5185 5.89464 13.2641 6 12.9989 6H3.40892L4.70892 4.71C4.89722 4.5217 5.00301 4.2663 5.00301 4C5.00301 3.7337 4.89722 3.4783 4.70892 3.29C4.52062 3.1017 4.26522 2.99591 3.99892 2.99591C3.73262 2.99591 3.47722 3.1017 3.28892 3.29L0.28892 6.29C0.197879 6.3851 0.126514 6.49725 0.0789198 6.62C-0.0210983 6.86346 -0.0210983 7.13654 0.0789198 7.38C0.126514 7.50275 0.197879 7.6149 0.28892 7.71L3.28892 10.71C3.38188 10.8037 3.49248 10.8781 3.61434 10.9289C3.7362 10.9797 3.86691 11.0058 3.99892 11.0058C4.13093 11.0058 4.26164 10.9797 4.3835 10.9289C4.50536 10.8781 4.61596 10.8037 4.70892 10.71C4.80265 10.617 4.87704 10.5064 4.92781 10.3846C4.97858 10.2627 5.00472 10.132 5.00472 10C5.00472 9.86799 4.97858 9.73728 4.92781 9.61542C4.87704 9.49356 4.80265 9.38296 4.70892 9.29L3.40892 8H12.9989C13.7946 8 14.5576 7.68393 15.1202 7.12132C15.6828 6.55871 15.9989 5.79565 15.9989 5V1C15.9989 0.734784 15.8936 0.48043 15.706 0.292893C15.5185 0.105357 15.2641 0 14.9989 0Z" fill="black"/>
</svg>
